# xmcd
#
# Track frame offsets: 
#        183
#        23493
#        37833
#        50373
#        67128
#        84305
#        108175
#        126653
#        145235
#        163955
#        180885
#        198533
#        220733
#        236135
#        252065
#        268060
#        280293
#        297633
#        318975
#
# Disc length: 4434 seconds
#
# Revision: 5
# Processed by: cddbd v1.5.2PL0 Copyright (c) Steve Scherf et al.
# Submitted via: ExactAudioCopy v0.99pb5
#
DISCID=1d115013
DTITLE=Paolo Conte - L´Album di Paolo Conte | 2
DYEAR=1988
DGENRE=Jazz
TTITLE0=Paris Milonga - Alle Prese con una verde milonga
TTITLE1=Paris Milonga - Parigi
TTITLE2=Paris Milonga - Via con me
TTITLE3=Paris Milonga - L´ultima Donna
TTITLE4=Paris Milonga - La vera musica
TTITLE5=Paris Milonga - Boogie
TTITLE6=Appunti di viaggio - Dancing
TTITLE7=Appunti di viaggio - Fuga all´inglese
TTITLE8=Appunti di viaggio - Lo Zio
TTITLE9=Appunti di viaggio - Diavolo rosso
TTITLE10=Appunti di viaggio - Hemingway
TTITLE11=Appunti di viaggio - Le chic et le charme
TTITLE12=Tutti per Conte, Conte per tutti - Genova per noi
TTITLE13=Tutti per Conte, Conte per tutti - Tripoli 1969
TTITLE14=Tutti per Conte, Conte per tutti - Azzurro
TTITLE15=Tutti per Conte, Conte per tutti - La Fisarmonica di stradell
TTITLE15=a
TTITLE16=Tutti per Conte, Conte per tutti - Bartali
TTITLE17=Tutti per Conte, Conte per tutti - Vamp
TTITLE18=Tutti per Conte, Conte per tutti - Via con me
EXTD=YEAR: 1988
EXTT0=
EXTT1=
EXTT2=
EXTT3=
EXTT4=
EXTT5=
EXTT6=
EXTT7=
EXTT8=
EXTT9=
EXTT10=
EXTT11=
EXTT12=
EXTT13=
EXTT14=
EXTT15=
EXTT16=
EXTT17=
EXTT18=
PLAYORDER=
